<?xml version="1.0" encoding="utf-8"?>
<!-- Generator: Adobe Illustrator 15.0.0, SVG Export Plug-In . SVG Version: 6.00 Build 0)  -->
<!DOCTYPE svg PUBLIC "-//W3C//DTD SVG 1.1//EN" "http://www.w3.org/Graphics/SVG/1.1/DTD/svg11.dtd">
<svg version="1.1" xmlns="http://www.w3.org/2000/svg" xmlns:xlink="http://www.w3.org/1999/xlink" x="0px" y="0px"
	 width="595.28px" height="841.89px" viewBox="0 0 595.28 841.89" enable-background="new 0 0 595.28 841.89" xml:space="preserve">
<g id="Ebene_1">
	<g>
		<circle fill="#E52620" cx="298.028" cy="421.713" r="14.173"/>
		<g>
			<path fill="#FFFFFF" d="M295.569,411.525c0,0,7.313,6.162,7.553,13c0.17,4.828-1.571,7.375-4.737,7.375
				c-2.898,0-6.086-2.848-5.357-6.696C293.536,422.522,297.939,418.768,295.569,411.525z"/>
			<path fill="#E52620" d="M298.227,422.525c0,0,2.527,2.875,2.527,4.875c0,2.753-0.79,4.125-2.21,4.125
				c-1.578,0-2.684-1.625-2.684-4.125C295.86,425.275,298.227,422.525,298.227,422.525z"/>
		</g>
		<text transform="matrix(1 0 0 1 327.75 429)"><tspan x="0" y="0" fill="#575756" font-family="'Crackhouse'" font-size="28">outsidestory.de</tspan><tspan x="0" y="14.4" fill="#575756" font-family="'AGaramondPro-BoldItalic'" font-size="12">Geschichten von draußen ...</tspan></text>
		<rect x="276.768" y="400.453" fill="none" width="42.52" height="42.52"/>
	</g>
</g>
<g id="Layer_1">
	<circle fill="#676767" cx="525.638" cy="422.526" r="40"/>
	<g>
		<path fill="#F07E1B" d="M512.489,444.149c-1.932-2.176-14.746-16.991-1.814-29.809c10.776-10.692,12.349-19.67,8.72-24.024
			c0,0,27.433,11.274,11.297,37.422c-2.763,4.439-9.712,10.156-6.054,20.492c1.232,3.256,4.157,6.503,4.157,6.503
			S519.962,452.233,512.489,444.149z"/>
		<path fill="#F07E1B" d="M529.335,447.697c-0.692-2.499-3.221-6.971,4.805-16.473c4.289-5.064,5.902-12.573,6.289-15.398
			c0,0,13.012,8.115,0.324,27.24c-3.509,5.016-6.375,7.438-6.708,11.667C533.253,453.879,530.027,450.196,529.335,447.697z"/>
	</g>
</g>
</svg>
