<svg xmlns="http://www.w3.org/2000/svg" xmlns:xlink="http://www.w3.org/1999/xlink" version="1.1" x="0px" y="0px" viewBox="0 0 100 125" enable-background="new 0 0 100 100" xml:space="preserve"><g><path fill="#DD0000" d="M5.6,34.5c-0.6,1.3-0.8,2.7-0.4,4.1l7.6,25.5V30.6l-4.1,1.2C7.4,32.3,6.3,33.2,5.6,34.5z"/><path fill="#DD0000" d="M19.7,87.1c0.7,2.5,3.1,4.1,5.6,3.9c0.4,0,0.7-0.1,1.1-0.2l22.5-6.7H18.8L19.7,87.1z"/><path fill="#DD0000" d="M89.9,18.9h-8.6l-0.8-2.8c-0.7-2.5-3.1-4.1-5.6-3.9c-0.4,0-0.7,0.1-1.1,0.2L52,18.9H22c-2.9,0-5.3,2.5-5.3,5.5v50.7   c0,3,2.4,5.5,5.3,5.5h67.9c2.9,0,5.3-2.5,5.3-5.5V24.4C95.2,21.4,92.8,18.9,89.9,18.9z M22,22.9h67.9c0.7,0,1.3,0.7,1.3,1.5v37.8   L70.6,37.4c-1.4-1.7-3.9-1.7-5.3,0l-16,19.8c-1.4,1.7-3.9,1.7-5.3,0l-7-8.5c-1.4-1.7-3.9-1.7-5.3,0l-11,13.2V24.4   C20.7,23.6,21.3,22.9,22,22.9z"/><circle fill="#DD0000" cx="46.9" cy="34.8" r="7"/></g></svg>