<svg xmlns="http://www.w3.org/2000/svg" xmlns:xlink="http://www.w3.org/1999/xlink" version="1.1" x="0px" y="0px" viewBox="0 0 24 30" style="enable-background:new 0 0 24 24;" xml:space="preserve"><path fill="#DD0000" d="M15.925,11.57L9.77,8.07C9.617,7.983,9.429,7.984,9.277,8.073C9.125,8.161,9.031,8.324,9.031,8.5V15.5  c0,0.176,0.094,0.339,0.246,0.428c0.077,0.045,0.163,0.067,0.249,0.067c0.084,0,0.169-0.021,0.245-0.065l6.155-3.5  c0.155-0.088,0.25-0.252,0.25-0.43S16.08,11.658,15.925,11.57z M10.021,14.649V9.351L14.68,12L10.021,14.649z"/><path fill="#DD0000" d="M21.867,4.082h-2.471h-2.471h-2.471h-2.44h-0.031h-2.44H7.074H4.604H2.133c-0.273,0-0.495,0.222-0.495,0.495v2.474v9.898  v2.475c0,0.273,0.222,0.495,0.495,0.495H2.34h2.263h2.471h2.471h2.44h0.031h2.44h2.471h2.471h2.471c0.273,0,0.495-0.222,0.495-0.495  v-2.475V7.051V4.577C22.362,4.303,22.14,4.082,21.867,4.082z M17.421,5.071h1.481v1.485h-1.481V5.071z M14.95,5.071h1.481v1.485  H14.95V5.071z M12.51,5.071h1.45v1.485h-1.45V5.071z M10.04,5.071h1.45v1.485h-1.45V5.071z M7.569,5.071H9.05v1.485H7.569V5.071z   M5.098,5.071h1.481v1.485H5.098V5.071z M2.628,5.071h1.481v1.485H2.628V5.071z M4.109,18.929H2.628v-1.485h1.481V18.929z   M6.579,18.929H5.098v-1.485h1.481V18.929z M9.05,18.929H7.569v-1.485H9.05V18.929z M11.49,18.929h-1.45v-1.485h1.45V18.929z   M13.96,18.929h-1.45v-1.485h1.45V18.929z M16.431,18.929H14.95v-1.485h1.481V18.929z M18.902,18.929h-1.481v-1.485h1.481V18.929z   M21.372,18.929h-1.481v-1.485h1.481V18.929z M21.372,16.454h-1.976h-2.471h-2.471h-2.44h-0.031h-2.44H7.074H4.604H2.628V7.546  h1.976h2.471h2.471h2.44h0.031h2.44h2.471h2.471h1.976V16.454z M21.372,6.556h-1.481V5.071h1.481V6.556z"/></svg>