<?xml version="1.0" encoding="utf-8"?><svg xmlns="http://www.w3.org/2000/svg" xmlns:xlink="http://www.w3.org/1999/xlink"><symbol viewBox="0 0 35.2 40.541" id="logo" xmlns="http://www.w3.org/2000/svg"><path d="M.337 24.838c.957-4.625 4.487-8.39 4.785-13.012 1.338 2.434 1.497 4.188 1.647 6.73C11.021 13.349 15.431 6.376 14.476 0c0 0 8.063 2.533 11.322 14.898 1.928-1.714 1.746-5.246.793-7.332 2.862 2.086 19.29 20.602-2.58 32.975 4.112-8.006 1.06-18.807-6.078-23.797.477 2.145-.12 7.746-3.277 11.262.715-3.635-1.072-5.96-1.072-5.96s-.586 3.292-2.862 6.616C8.646 31.697 7.21 34.92 9.91 40.541 1.308 35.695-.956 31.107.337 24.838z"/></symbol><symbol viewBox="0 0 100 100" id="photo" xmlns="http://www.w3.org/2000/svg"><path d="M5.6 34.5c-.6 1.3-.8 2.7-.4 4.1l7.6 25.5V30.6l-4.1 1.2c-1.3.5-2.4 1.4-3.1 2.7zM19.7 87.1c.7 2.5 3.1 4.1 5.6 3.9.4 0 .7-.1 1.1-.2l22.5-6.7H18.8l.9 3zM89.9 18.9h-8.6l-.8-2.8c-.7-2.5-3.1-4.1-5.6-3.9-.4 0-.7.1-1.1.2L52 18.9H22c-2.9 0-5.3 2.5-5.3 5.5v50.7c0 3 2.4 5.5 5.3 5.5h67.9c2.9 0 5.3-2.5 5.3-5.5V24.4c0-3-2.4-5.5-5.3-5.5zm-67.9 4h67.9c.7 0 1.3.7 1.3 1.5v37.8L70.6 37.4c-1.4-1.7-3.9-1.7-5.3 0l-16 19.8c-1.4 1.7-3.9 1.7-5.3 0l-7-8.5c-1.4-1.7-3.9-1.7-5.3 0l-11 13.2V24.4c0-.8.6-1.5 1.3-1.5z"/><circle cx="46.9" cy="34.8" r="7"/></symbol><symbol viewBox="0 0 100 100" id="read" xmlns="http://www.w3.org/2000/svg"><path d="M42.875 62.184c-9.096-2.333-17.57-2.333-26.668-.001-.663.17-1.067.865-.903 1.553.164.688.834 1.109 1.496.938 8.693-2.229 16.791-2.229 25.483 0 .1.025.199.038.297.038.555 0 1.06-.391 1.199-.976.163-.688-.241-1.382-.904-1.552zM42.875 54.771c-9.097-2.332-17.57-2.332-26.668 0-.662.17-1.066.865-.903 1.554.164.688.833 1.108 1.497.938 8.693-2.229 16.791-2.229 25.482 0 .1.025.199.038.297.038.555 0 1.06-.392 1.199-.976.163-.689-.241-1.385-.904-1.554zM42.875 47.359c-9.097-2.332-17.571-2.332-26.668 0-.663.17-1.067.865-.903 1.553.164.688.834 1.107 1.496.938 8.692-2.229 16.79-2.229 25.483 0 .099.026.199.038.297.038.555 0 1.06-.391 1.199-.976.163-.687-.241-1.383-.904-1.553zM42.875 39.948c-9.098-2.334-17.572-2.334-26.669 0-.663.17-1.067.865-.903 1.553.164.688.833 1.108 1.496.938 8.692-2.229 16.79-2.229 25.482 0 .1.026.199.038.298.038.555 0 1.059-.391 1.198-.976.165-.688-.239-1.383-.902-1.553zM16.8 35.026c8.692-2.229 16.79-2.229 25.482 0 .1.025.199.038.297.038.555 0 1.06-.392 1.199-.976.164-.688-.241-1.384-.903-1.554-9.097-2.333-17.571-2.333-26.668 0-.663.17-1.067.866-.903 1.554s.833 1.108 1.496.938z"/><path d="M92.5 42.214V27.146c0-1.434-.979-2.86-2.338-3.397l-.055-.021c-6.71-2.348-13.137-3.489-19.647-3.489s-12.938 1.142-19.662 3.494l-.051.02a3.36 3.36 0 0 0-.747.413 3.39 3.39 0 0 0-.757-.417l-.055-.021c-6.71-2.348-13.137-3.489-19.647-3.489s-12.938 1.142-19.662 3.494l-.051.02c-1.348.532-2.327 1.96-2.327 3.394v50.012c0 .709.238 1.338.688 1.82.469.502 1.124.778 1.845.778.353 0 .705-.066 1.03-.191 6.326-2.212 12.37-3.288 18.477-3.288 6.107 0 12.151 1.076 18.46 3.281.678.261 1.395.266 2.009.025a2.813 2.813 0 0 0 1.972-.019c6.327-2.212 12.371-3.288 18.478-3.288s12.151 1.076 18.46 3.281c.35.135.705.202 1.057.202 1.439 0 2.524-1.119 2.524-2.603V42.214zM51.909 27.182a.614.614 0 0 1 .122-.183c6.31-2.201 12.338-3.271 18.429-3.271 6.088 0 12.114 1.069 18.42 3.268a.58.58 0 0 1 .131.186l-.001 48.722c-6.315-2.096-12.394-3.116-18.551-3.116s-12.235 1.021-18.55 3.116V27.182zm-40.919 0a.634.634 0 0 1 .122-.183c6.31-2.201 12.338-3.271 18.429-3.271 6.088 0 12.114 1.069 18.42 3.268a.562.562 0 0 1 .13.186v48.723c-6.316-2.096-12.394-3.116-18.551-3.116-6.157 0-12.235 1.021-18.55 3.116V27.182z"/><path d="M83.794 62.184c-9.097-2.333-17.57-2.333-26.668-.001-.663.17-1.067.865-.904 1.553.164.688.834 1.109 1.496.938 8.693-2.229 16.791-2.229 25.483 0 .1.025.198.038.297.038.556 0 1.06-.391 1.199-.976.164-.688-.241-1.382-.903-1.552zM83.794 54.771c-9.097-2.332-17.57-2.332-26.668 0-.663.17-1.067.865-.903 1.554.163.688.832 1.108 1.495.938 8.694-2.229 16.791-2.229 25.483 0 .1.025.199.038.297.038.556 0 1.061-.392 1.199-.976.164-.689-.241-1.385-.903-1.554zM83.794 47.359c-9.098-2.332-17.571-2.332-26.668 0-.663.17-1.067.865-.904 1.553.164.688.834 1.107 1.496.938 8.692-2.229 16.79-2.229 25.483 0 .1.026.199.038.297.038.556 0 1.061-.391 1.199-.976.164-.687-.241-1.383-.903-1.553zM83.794 39.948c-9.097-2.334-17.571-2.334-26.669 0-.662.17-1.066.865-.902 1.553.163.688.833 1.108 1.495.938 8.693-2.229 16.79-2.229 25.483 0 .1.026.199.038.297.038.556 0 1.061-.391 1.199-.976.164-.688-.24-1.383-.903-1.553zM57.718 35.026c8.693-2.229 16.79-2.229 25.483 0 .1.025.199.038.297.038.556 0 1.061-.392 1.199-.976.164-.688-.241-1.384-.903-1.554-9.097-2.333-17.571-2.333-26.669 0-.662.17-1.066.866-.903 1.554.164.688.834 1.108 1.496.938z"/></symbol><symbol viewBox="0 0 24 24" id="video" xmlns="http://www.w3.org/2000/svg"><path d="M15.925 11.57L9.77 8.07a.493.493 0 0 0-.739.43v7a.497.497 0 0 0 .74.43l6.155-3.5a.494.494 0 0 0-.001-.86zm-5.904 3.079V9.351L14.68 12l-4.659 2.649z"/><path d="M21.867 4.082H2.133a.495.495 0 0 0-.495.495v14.847c0 .273.222.495.495.495h19.736a.495.495 0 0 0 .495-.495V4.577a.498.498 0 0 0-.497-.495zm-4.446.989h1.481v1.485h-1.481V5.071zm-2.471 0h1.481v1.485H14.95V5.071zm-2.44 0h1.45v1.485h-1.45V5.071zm-2.47 0h1.45v1.485h-1.45V5.071zm-2.471 0H9.05v1.485H7.569V5.071zm-2.471 0h1.481v1.485H5.098V5.071zm-2.47 0h1.481v1.485H2.628V5.071zm1.481 13.858H2.628v-1.485h1.481v1.485zm2.47 0H5.098v-1.485h1.481v1.485zm2.471 0H7.569v-1.485H9.05v1.485zm2.44 0h-1.45v-1.485h1.45v1.485zm2.47 0h-1.45v-1.485h1.45v1.485zm2.471 0H14.95v-1.485h1.481v1.485zm2.471 0h-1.481v-1.485h1.481v1.485zm2.47 0h-1.481v-1.485h1.481v1.485zm0-2.475H2.628V7.546h18.747v8.908zm0-9.898h-1.481V5.071h1.481v1.485z"/></symbol></svg>