<svg xmlns="http://www.w3.org/2000/svg" xmlns:xlink="http://www.w3.org/1999/xlink" version="1.1" x="0px" y="0px" viewBox="0 0 100 100" enable-background="new 0 0 100 100" xml:space="preserve"><g><path d="M42.875,62.184c-9.096-2.333-17.57-2.333-26.668-0.001c-0.663,0.17-1.067,0.865-0.903,1.553   c0.164,0.688,0.834,1.109,1.496,0.938c8.693-2.229,16.791-2.229,25.483,0c0.1,0.025,0.199,0.038,0.297,0.038   c0.555,0,1.06-0.391,1.199-0.976C43.942,63.048,43.538,62.354,42.875,62.184z"/><path d="M42.875,54.771c-9.097-2.332-17.57-2.332-26.668,0c-0.662,0.17-1.066,0.865-0.903,1.554   c0.164,0.688,0.833,1.108,1.497,0.938c8.693-2.229,16.791-2.229,25.482,0c0.1,0.025,0.199,0.038,0.297,0.038   c0.555,0,1.06-0.392,1.199-0.976C43.942,55.636,43.538,54.94,42.875,54.771z"/><path d="M42.875,47.359c-9.097-2.332-17.571-2.332-26.668,0c-0.663,0.17-1.067,0.865-0.903,1.553   c0.164,0.688,0.834,1.107,1.496,0.938c8.692-2.229,16.79-2.229,25.483,0c0.099,0.026,0.199,0.038,0.297,0.038   c0.555,0,1.06-0.391,1.199-0.976C43.942,48.225,43.538,47.529,42.875,47.359z"/><path d="M42.875,39.948c-9.098-2.334-17.572-2.334-26.669,0c-0.663,0.17-1.067,0.865-0.903,1.553   c0.164,0.688,0.833,1.108,1.496,0.938c8.692-2.229,16.79-2.229,25.482,0c0.1,0.026,0.199,0.038,0.298,0.038   c0.555,0,1.059-0.391,1.198-0.976C43.942,40.813,43.538,40.118,42.875,39.948z"/><path d="M16.8,35.026c8.692-2.229,16.79-2.229,25.482,0c0.1,0.025,0.199,0.038,0.297,0.038   c0.555,0,1.06-0.392,1.199-0.976c0.164-0.688-0.241-1.384-0.903-1.554c-9.097-2.333-17.571-2.333-26.668,0   c-0.663,0.17-1.067,0.866-0.903,1.554S16.137,35.196,16.8,35.026z"/><path d="M92.5,42.214V27.146c0-1.434-0.979-2.86-2.338-3.397l-0.055-0.021c-6.71-2.348-13.137-3.489-19.647-3.489   s-12.938,1.142-19.662,3.494l-0.051,0.02c-0.262,0.104-0.512,0.241-0.747,0.413c-0.236-0.172-0.488-0.311-0.757-0.417l-0.055-0.021   c-6.71-2.348-13.137-3.489-19.647-3.489s-12.938,1.142-19.662,3.494l-0.051,0.02c-1.348,0.532-2.327,1.96-2.327,3.394   c-0.001,16.67-0.001,33.341,0,50.012c0,0.709,0.238,1.338,0.688,1.82c0.469,0.502,1.124,0.778,1.845,0.778   c0.353,0,0.705-0.066,1.03-0.191c6.326-2.212,12.37-3.288,18.477-3.288c6.107,0,12.151,1.076,18.46,3.281   c0.678,0.261,1.395,0.266,2.009,0.025c0.614,0.235,1.347,0.222,1.972-0.019c6.327-2.212,12.371-3.288,18.478-3.288   s12.151,1.076,18.46,3.281c0.35,0.135,0.705,0.202,1.057,0.202c1.439,0,2.524-1.119,2.524-2.603V42.214z M51.909,27.182   c0.021-0.059,0.09-0.155,0.122-0.183c6.31-2.201,12.338-3.271,18.429-3.271c6.088,0,12.114,1.069,18.42,3.268   c0.044,0.036,0.109,0.129,0.131,0.186L89.01,75.904c-6.315-2.096-12.394-3.116-18.551-3.116s-12.235,1.021-18.55,3.116   C51.908,59.664,51.908,43.422,51.909,27.182z M10.99,27.182c0.022-0.059,0.09-0.155,0.122-0.183   c6.31-2.201,12.338-3.271,18.429-3.271c6.088,0,12.114,1.069,18.42,3.268c0.044,0.036,0.109,0.129,0.13,0.186l0,48.723   c-6.316-2.096-12.394-3.116-18.551-3.116c-6.157,0-12.235,1.021-18.55,3.116C10.989,59.664,10.989,43.422,10.99,27.182z"/><path d="M83.794,62.184c-9.097-2.333-17.57-2.333-26.668-0.001c-0.663,0.17-1.067,0.865-0.904,1.553   c0.164,0.688,0.834,1.109,1.496,0.938c8.693-2.229,16.791-2.229,25.483,0c0.1,0.025,0.198,0.038,0.297,0.038   c0.556,0,1.06-0.391,1.199-0.976C84.861,63.048,84.456,62.354,83.794,62.184z"/><path d="M83.794,54.771c-9.097-2.332-17.57-2.332-26.668,0c-0.663,0.17-1.067,0.865-0.903,1.554   c0.163,0.688,0.832,1.108,1.495,0.938c8.694-2.229,16.791-2.229,25.483,0c0.1,0.025,0.199,0.038,0.297,0.038   c0.556,0,1.061-0.392,1.199-0.976C84.861,55.636,84.456,54.94,83.794,54.771z"/><path d="M83.794,47.359c-9.098-2.332-17.571-2.332-26.668,0c-0.663,0.17-1.067,0.865-0.904,1.553   c0.164,0.688,0.834,1.107,1.496,0.938c8.692-2.229,16.79-2.229,25.483,0c0.1,0.026,0.199,0.038,0.297,0.038   c0.556,0,1.061-0.391,1.199-0.976C84.861,48.225,84.456,47.529,83.794,47.359z"/><path d="M83.794,39.948c-9.097-2.334-17.571-2.334-26.669,0c-0.662,0.17-1.066,0.865-0.902,1.553   c0.163,0.688,0.833,1.108,1.495,0.938c8.693-2.229,16.79-2.229,25.483,0c0.1,0.026,0.199,0.038,0.297,0.038   c0.556,0,1.061-0.391,1.199-0.976C84.861,40.813,84.457,40.118,83.794,39.948z"/><path d="M57.718,35.026c8.693-2.229,16.79-2.229,25.483,0c0.1,0.025,0.199,0.038,0.297,0.038   c0.556,0,1.061-0.392,1.199-0.976c0.164-0.688-0.241-1.384-0.903-1.554c-9.097-2.333-17.571-2.333-26.669,0   c-0.662,0.17-1.066,0.866-0.903,1.554C56.386,34.776,57.056,35.196,57.718,35.026z"/></g></svg>
