<?xml version="1.0" standalone="no"?>
<!DOCTYPE svg PUBLIC "-//W3C//DTD SVG 20010904//EN"
 "http://www.w3.org/TR/2001/REC-SVG-20010904/DTD/svg10.dtd">
<svg version="1.0" xmlns="http://www.w3.org/2000/svg"
 width="16.000000pt" height="16.000000pt" viewBox="0 0 16.000000 16.000000"
 preserveAspectRatio="xMidYMid meet">
<metadata>
Created by potrace 1.11, written by Peter Selinger 2001-2013
</metadata>
<g transform="translate(0.000000,16.000000) scale(0.002439,-0.002439)"
fill="#000000" stroke="none">
<path d="M2779 6552 c-1 -4 -1 -11 0 -16 19 -102 17 -445 -3 -556 -2 -14 -7
-43 -10 -65 -2 -22 -12 -76 -21 -120 -10 -44 -19 -88 -21 -99 -2 -10 -11 -44
-20 -75 -9 -31 -18 -64 -19 -74 -2 -9 -7 -22 -10 -27 -3 -5 -8 -18 -10 -27 -9
-51 -97 -281 -155 -408 -83 -184 -296 -580 -336 -626 -8 -8 -14 -18 -14 -22 0
-22 -337 -506 -457 -657 -6 -8 -27 -34 -45 -56 -18 -23 -44 -56 -58 -74 -14
-17 -33 -41 -42 -52 -10 -12 -18 -26 -18 -31 0 -6 -3 -7 -7 -4 -6 7 -8 26 -18
157 -5 69 -7 95 -20 205 -18 147 -47 273 -96 412 -35 100 -127 298 -135 290
-3 -3 -7 -18 -9 -34 -2 -15 -6 -46 -9 -68 -8 -61 -19 -113 -52 -250 -3 -11 -6
-24 -7 -30 -2 -5 -6 -15 -9 -21 -4 -6 -9 -21 -12 -35 -6 -28 -50 -148 -64
-175 -6 -11 -11 -22 -11 -26 -5 -26 -53 -131 -148 -328 -42 -85 -84 -173 -95
-195 -10 -22 -23 -47 -28 -55 -9 -13 -68 -139 -142 -300 -57 -122 -141 -352
-140 -380 0 -3 -4 -11 -10 -17 -6 -7 -8 -13 -4 -13 3 0 0 -16 -8 -35 -8 -19
-13 -35 -11 -35 3 0 1 -10 -4 -23 -5 -13 -12 -41 -15 -63 -4 -21 -8 -46 -11
-54 -2 -8 -6 -33 -9 -55 -4 -22 -8 -51 -11 -65 -23 -110 -28 -432 -9 -564 17
-121 48 -256 75 -321 4 -11 20 -51 35 -90 42 -108 164 -325 211 -373 7 -7 13
-17 13 -20 0 -4 10 -18 23 -32 12 -14 42 -50 67 -80 52 -62 209 -220 297 -298
50 -43 142 -116 288 -227 58 -43 106 -75 115 -75 5 0 10 -4 10 -9 0 -5 15 -16
34 -25 18 -8 39 -22 46 -31 7 -8 18 -15 25 -15 8 0 15 -4 17 -8 2 -5 28 -23
58 -41 30 -17 103 -61 163 -96 59 -35 107 -62 107 -59 0 2 -10 26 -21 52 -56
124 -89 210 -113 287 -11 33 -21 67 -24 75 -3 8 -6 17 -7 20 0 3 -4 14 -8 25
-3 11 -8 31 -11 45 -3 14 -12 60 -20 103 -34 168 -38 391 -11 527 6 33 13 68
20 105 6 29 15 58 31 100 10 26 9 25 19 60 14 51 122 268 180 360 30 48 55 91
55 95 0 5 3 10 8 12 11 4 152 224 152 236 0 6 3 12 8 14 12 5 152 284 152 302
0 9 5 16 10 16 6 0 10 8 10 18 0 10 4 22 8 27 4 6 14 28 21 50 7 22 19 54 26
70 21 48 67 193 90 284 11 47 25 86 31 88 6 2 16 -13 24 -32 8 -20 20 -41 27
-47 7 -5 10 -14 7 -19 -3 -5 0 -9 5 -9 6 0 11 -5 11 -10 0 -6 9 -29 19 -53 16
-35 29 -69 36 -97 1 -3 5 -12 8 -20 12 -29 36 -136 44 -195 15 -117 6 -424
-14 -457 -14 -25 10 0 53 55 110 137 224 330 301 512 52 121 119 346 148 500
5 22 10 47 12 55 3 13 7 42 18 120 27 187 26 484 -1 554 -7 18 -4 18 27 -4 19
-13 36 -28 37 -32 2 -4 8 -8 14 -8 9 0 64 -44 163 -130 143 -125 344 -353 465
-527 106 -154 251 -419 314 -573 10 -25 24 -59 32 -76 35 -79 125 -369 140
-453 3 -13 8 -31 13 -40 4 -9 7 -23 6 -31 -1 -8 3 -28 7 -45 5 -16 11 -46 14
-65 3 -19 7 -46 10 -60 41 -222 51 -678 19 -875 -3 -16 -7 -48 -10 -70 -4 -43
-12 -86 -21 -125 -3 -14 -8 -38 -10 -55 -3 -16 -12 -55 -20 -85 -40 -142 -57
-198 -71 -235 -8 -22 -16 -47 -18 -55 -4 -18 -53 -137 -68 -165 -6 -11 -17
-33 -24 -50 -8 -16 -19 -38 -24 -48 -5 -9 -6 -17 -3 -17 11 0 89 45 92 53 2 4
8 7 13 7 12 0 221 133 345 220 59 41 114 80 122 85 9 6 21 15 27 20 6 6 29 24
50 40 222 174 471 419 610 599 17 22 40 51 53 67 12 15 22 30 22 34 0 3 6 13
13 20 28 32 37 46 94 141 91 152 122 211 116 218 -4 3 -1 6 5 6 7 0 12 9 12
19 0 11 4 21 8 23 8 3 72 156 97 233 18 54 49 158 51 170 1 6 3 12 4 15 8 23
47 238 56 315 16 130 9 514 -11 625 -3 14 -7 45 -11 70 -3 25 -8 53 -10 62 -3
10 -7 30 -10 45 -3 16 -9 44 -14 63 -5 19 -11 46 -14 60 -3 14 -14 59 -26 100
-21 76 -23 84 -32 110 -3 8 -21 58 -38 110 -79 228 -231 548 -372 778 -52 85
-170 266 -178 272 -3 3 -22 28 -40 55 -19 28 -38 55 -42 60 -5 6 -38 48 -74
95 -114 146 -201 244 -334 379 -103 104 -178 165 -165 136 15 -35 56 -159 62
-185 3 -14 6 -29 7 -35 2 -5 6 -26 9 -45 4 -19 10 -48 13 -65 12 -62 11 -297
-2 -378 -28 -177 -101 -333 -201 -433 -27 -27 -26 -27 -48 56 -27 103 -118
373 -175 515 -64 162 -246 534 -271 555 -3 3 -8 12 -12 20 -4 8 -17 31 -29 51
-13 19 -33 51 -45 70 -12 19 -27 39 -32 46 -6 7 -11 15 -11 18 0 9 -192 262
-242 319 -121 139 -317 325 -433 411 -22 16 -42 32 -45 35 -25 25 -202 139
-300 192 -83 45 -210 99 -211 90z"/>
</g>
</svg>
